<svg width="20" height="18" viewBox="0 0 20 18" fill="none" xmlns="http://www.w3.org/2000/svg">
<path d="M0.956299 1.99999C0.956299 1.69058 1.07902 1.39383 1.29747 1.17504C1.51593 0.956245 1.81221 0.833328 2.12115 0.833328H18.429C18.7379 0.833328 19.0342 0.956245 19.2527 1.17504C19.4711 1.39383 19.5938 1.69058 19.5938 1.99999C19.5938 2.30941 19.4711 2.60616 19.2527 2.82495C19.0342 3.04375 18.7379 3.16666 18.429 3.16666H2.12115C1.81221 3.16666 1.51593 3.04375 1.29747 2.82495C1.07902 2.60616 0.956299 2.30941 0.956299 1.99999ZM0.956299 9C0.956299 8.69058 1.07902 8.39383 1.29747 8.17504C1.51593 7.95625 1.81221 7.83333 2.12115 7.83333H18.429C18.7379 7.83333 19.0342 7.95625 19.2527 8.17504C19.4711 8.39383 19.5938 8.69058 19.5938 9C19.5938 9.30941 19.4711 9.60616 19.2527 9.82495C19.0342 10.0437 18.7379 10.1667 18.429 10.1667H2.12115C1.81221 10.1667 1.51593 10.0437 1.29747 9.82495C1.07902 9.60616 0.956299 9.30941 0.956299 9ZM2.12115 14.8333C1.81221 14.8333 1.51593 14.9562 1.29747 15.175C1.07902 15.3938 0.956299 15.6906 0.956299 16C0.956299 16.3094 1.07902 16.6062 1.29747 16.825C1.51593 17.0437 1.81221 17.1667 2.12115 17.1667H18.429C18.7379 17.1667 19.0342 17.0437 19.2527 16.825C19.4711 16.6062 19.5938 16.3094 19.5938 16C19.5938 15.6906 19.4711 15.3938 19.2527 15.175C19.0342 14.9562 18.7379 14.8333 18.429 14.8333H2.12115Z" fill="#232323"/>
</svg>
