<svg width="64" height="19" viewBox="0 0 64 19" fill="none" xmlns="http://www.w3.org/2000/svg">
<path d="M3.68484 15.2849V5.52054H0V3.97301H8.97746V5.52054H5.29263V15.2849H3.68484Z" fill="#232323"/>
<path d="M22.0632 15.2849V3.97301H26.5404C26.6481 3.97301 26.7815 3.97825 26.9404 3.98872C27.0994 3.99396 27.2507 4.00967 27.3943 4.03585C28.0097 4.13536 28.5226 4.35007 28.9329 4.68C29.3483 5.00993 29.6586 5.42627 29.8637 5.92902C30.0688 6.43177 30.1714 6.98689 30.1714 7.59438C30.1714 8.20711 30.0688 8.76484 29.8637 9.26759C29.6586 9.77034 29.3483 10.1867 28.9329 10.5166C28.5226 10.8465 28.0097 11.0613 27.3943 11.1608C27.2507 11.1817 27.0969 11.1974 26.9327 11.2079C26.7738 11.2184 26.643 11.2236 26.5404 11.2236H23.671V15.2849H22.0632ZM23.671 9.66822H26.4789C26.5814 9.66822 26.6943 9.66299 26.8174 9.65251C26.9456 9.64204 27.0661 9.62371 27.1789 9.59752C27.5071 9.51897 27.7713 9.37495 27.9713 9.16547C28.1713 8.95076 28.3149 8.70462 28.4021 8.42706C28.4893 8.1495 28.5328 7.87194 28.5328 7.59438C28.5328 7.31682 28.4893 7.04188 28.4021 6.76956C28.3149 6.492 28.1713 6.24848 27.9713 6.039C27.7713 5.82428 27.5071 5.67765 27.1789 5.59909C27.0661 5.56767 26.9456 5.54672 26.8174 5.53625C26.6943 5.52577 26.5814 5.52054 26.4789 5.52054H23.671V9.66822Z" fill="#232323"/>
<path d="M31.8631 15.2849V3.97301H33.4709V15.2849H31.8631Z" fill="#232323"/>
<path d="M40.4044 15.5205C39.2966 15.5205 38.3529 15.2744 37.5734 14.7821C36.7939 14.2846 36.1964 13.5933 35.781 12.7083C35.3707 11.8232 35.1656 10.7968 35.1656 9.62895C35.1656 8.4611 35.3707 7.43465 35.781 6.5496C36.1964 5.66455 36.7939 4.97589 37.5734 4.48361C38.3529 3.9861 39.2966 3.73735 40.4044 3.73735C41.507 3.73735 42.4481 3.9861 43.2276 4.48361C44.0123 4.97589 44.6097 5.66455 45.02 6.5496C45.4303 7.43465 45.6354 8.4611 45.6354 9.62895C45.6354 10.7968 45.4303 11.8232 45.02 12.7083C44.6097 13.5933 44.0123 14.2846 43.2276 14.7821C42.4481 15.2744 41.507 15.5205 40.4044 15.5205ZM40.4044 13.9573C41.189 13.9678 41.8403 13.7923 42.3583 13.431C42.8814 13.0644 43.2738 12.5564 43.5353 11.907C43.7969 11.2524 43.9276 10.493 43.9276 9.62895C43.9276 8.76484 43.7969 8.01072 43.5353 7.36657C43.2738 6.71719 42.8814 6.21182 42.3583 5.85047C41.8403 5.48911 41.189 5.30582 40.4044 5.30058C39.6197 5.29011 38.9658 5.46555 38.4427 5.8269C37.9247 6.18825 37.535 6.69624 37.2734 7.35086C37.0118 8.00548 36.8785 8.76484 36.8734 9.62895C36.8682 10.493 36.9965 11.2498 37.258 11.8992C37.5196 12.5433 37.9119 13.0461 38.435 13.4074C38.9632 13.7688 39.6197 13.9521 40.4044 13.9573Z" fill="#232323"/>
<path d="M47.3238 15.2849V3.97301H48.9315V13.7374H53.9472V15.2849H47.3238Z" fill="#232323"/>
<path d="M54.484 15.2849L58.0843 3.97301H60.3998L64 15.2849H62.3307L59.0151 4.9628H59.4305L56.1534 15.2849H54.484ZM56.3534 12.7319V11.1922H62.1384V12.7319H56.3534Z" fill="#232323"/>
<path fill-rule="evenodd" clip-rule="evenodd" d="M15.5473 5.4067C18.3701 1.545 23.3816 0.0955239 27.7706 1.87733L28.6824 2.24753L29.0884 1.20471L28.1766 0.834508C23.4713 -1.07568 18.1188 0.374153 14.9544 4.35792L14.1914 3.00851L5.14995 19H23.2329L15.5473 5.4067ZM8.95688 16.7556L14.1914 7.49735L19.426 16.7556H8.95688Z" fill="#232323"/>
</svg>
